<svg width="0" height="0" class="hidden">
  <symbol fill="none" xmlns="http://www.w3.org/2000/svg" viewBox="0 0 18 18" id="ua-flag">
    <path d="M9 16.5C13.1421 16.5 16.5 13.1421 16.5 9C16.5 4.85786 13.1421 1.5 9 1.5C4.85786 1.5 1.5 4.85786 1.5 9C1.5 13.1421 4.85786 16.5 9 16.5Z" fill="white"></path>
    <path d="M1.5 9C1.5 4.85786 4.85786 1.5 9 1.5C13.1421 1.5 16.5 4.85786 16.5 9H1.5Z" fill="#0057b8"></path>
    <path d="M1.5 9C1.5 13.1421 4.85786 16.5 9 16.5C13.1421 16.5 16.5 13.1421 16.5 9H1.5Z" fill="#ffd700"></path>
  </symbol>
  <symbol fill="none" xmlns="http://www.w3.org/2000/svg" viewBox="0 0 18 18" id="usa-flag">
    <path d="M9.00023 16.5C13.1425 16.5 16.5005 13.1421 16.5005 9C16.5005 4.85786 13.1425 1.5 9.00023 1.5C4.85797 1.5 1.5 4.85786 1.5 9C1.5 13.1421 4.85797 16.5 9.00023 16.5Z" fill="white"></path>
    <path d="M8.67548 8.99996H16.5012C16.5012 8.32308 16.4109 7.66735 16.2428 7.04358H8.67548V8.99996Z" fill="#D80027"></path>
    <path d="M8.67548 5.08712H15.4004C14.9413 4.338 14.3543 3.67585 13.6699 3.13074H8.67548V5.08712Z" fill="#D80027"></path>
    <path d="M9.0005 16.5001C10.7655 16.5001 12.3878 15.89 13.6689 14.8698H4.33209C5.61318 15.89 7.23548 16.5001 9.0005 16.5001Z" fill="#D80027"></path>
    <path d="M2.60125 12.9132H15.4C15.7686 12.3118 16.0545 11.6543 16.2425 10.9567H1.75879C1.94679 11.6543 2.23265 12.3118 2.60125 12.9132Z" fill="#D80027"></path>
    <path d="M4.97397 2.67114H5.65741L5.0217 3.13297L5.26453 3.88024L4.62884 3.41841L3.99316 3.88024L4.20292 3.23468C3.6432 3.7009 3.15262 4.24713 2.74834 4.85575H2.96732L2.56266 5.14972C2.49962 5.25489 2.43915 5.36173 2.38121 5.47015L2.57444 6.06485L2.21393 5.80293C2.12432 5.99279 2.04235 6.18692 1.96867 6.3851L2.18156 7.04036H2.96732L2.33161 7.50219L2.57444 8.24947L1.93876 7.78764L1.55798 8.0643C1.51986 8.37066 1.5 8.6827 1.5 8.99941H8.99964C8.99964 4.85763 8.99964 4.36934 8.99964 1.5C7.51811 1.5 6.13703 1.92975 4.97397 2.67114ZM5.26453 8.24947L4.62884 7.78764L3.99316 8.24947L4.23599 7.50219L3.60028 7.04036H4.38604L4.62884 6.29309L4.87165 7.04036H5.65741L5.0217 7.50219L5.26453 8.24947ZM5.0217 5.31758L5.26453 6.06485L4.62884 5.60303L3.99316 6.06485L4.23599 5.31758L3.60028 4.85575H4.38604L4.62884 4.10848L4.87165 4.85575H5.65741L5.0217 5.31758ZM7.95461 8.24947L7.31893 7.78764L6.68325 8.24947L6.92608 7.50219L6.29037 7.04036H7.07613L7.31893 6.29309L7.56173 7.04036H8.34749L7.71178 7.50219L7.95461 8.24947ZM7.71178 5.31758L7.95461 6.06485L7.31893 5.60303L6.68325 6.06485L6.92608 5.31758L6.29037 4.85575H7.07613L7.31893 4.10848L7.56173 4.85575H8.34749L7.71178 5.31758ZM7.71178 3.13297L7.95461 3.88024L7.31893 3.41841L6.68325 3.88024L6.92608 3.13297L6.29037 2.67114H7.07613L7.31893 1.92386L7.56173 2.67114H8.34749L7.71178 3.13297Z" fill="#1A47B8"></path>
  </symbol>
  <symbol xmlns="http://www.w3.org/2000/svg" fill="none" stroke="currentColor" viewBox="0 0 24 24" id="search">
    <path stroke-width="2" stroke-linecap="round" stroke-linejoin="round" d="M11 5a7 7 0 1 1-4.95 2.05M21 21l-4.35-4.35"></path>
  </symbol>
  <symbol xmlns="http://www.w3.org/2000/svg" fill="none" stroke="currentColor" viewBox="0 0 24 24" id="bulb">
    <path stroke-linecap="round" stroke-linejoin="round" stroke-width="2" d="M12 2a7 7 0 0 0-4 12.7c.6.4 1 1.1 1 1.8V17a2 2 0 0 0 2 2h2a2 2 0 0 0 2-2v-.5c0-.7.4-1.4 1-1.8A7 7 0 0 0 12 2z"></path>
    <path stroke-linecap="round" stroke-linejoin="round" stroke-width="2" d="M10 21h4M11 23h2"></path>
  </symbol>
  <symbol xmlns="http://www.w3.org/2000/svg" aria-hidden="true" fill="none" stroke="currentColor" viewBox="0 0 24 24" id="file">
    <path stroke-linecap="round" stroke-linejoin="round" stroke-width="2" d="M12 6v12m8-10v10a2 2 0 0 1-2 2H6a2 2 0 0 1-2-2V6a2 2 0 0 1 2-2h10l4 4z"></path>
  </symbol>
  <symbol aria-hidden="true" xmlns="http://www.w3.org/2000/svg" fill="none" stroke="currentColor" viewBox="0 0 24 24" id="equivalents">
    <path stroke-width="2" stroke-linecap="round" stroke-linejoin="round" d="M4 12h6m4 0h6M9 7l-5 5 5 5M15 7l5 5-5 5"></path>
  </symbol>
  <symbol aria-hidden="true" xmlns="http://www.w3.org/2000/svg" fill="none" stroke="currentColor" viewBox="0 0 24 24" id="list">
    <path stroke-width="2" stroke-linecap="round" stroke-linejoin="round" d="M4 6h16M4 12h16M4 18h16"></path>
  </symbol>
  <!-- <symbol xmlns="http://www.w3.org/2000/svg" fill="none" stroke="currentColor" viewBox="0 0 24 24" id="input-search">
    <path stroke-linecap="round" stroke-width="2" d="m21 21-3.5-3.5M17 10a7 7 0 1 1-14 0 7 7 0 0 1 14 0Z"></path>
  </symbol> -->
</svg>