<svg xmlns="http://www.w3.org/2000/svg" xmlns:xlink="http://www.w3.org/1999/xlink" width="715" zoomAndPan="magnify" viewBox="0 0 536.25 717.749979" height="957" preserveAspectRatio="xMidYMid meet" version="1.0"><defs><g/><clipPath id="6ae23382ca"><path d="M 0 88 L 535.5 88 L 535.5 627 L 0 627 Z M 0 88 " clip-rule="nonzero"/></clipPath><clipPath id="325dcb6bcb"><path d="M 0 78.28125 L 428.039062 78.28125 L 428.039062 506.320312 L 0 506.320312 Z M 0 78.28125 " clip-rule="nonzero"/></clipPath><clipPath id="e38f072b60"><path d="M 214.019531 78.28125 C 95.820312 78.28125 0 174.101562 0 292.300781 C 0 410.5 95.820312 506.320312 214.019531 506.320312 C 332.21875 506.320312 428.039062 410.5 428.039062 292.300781 C 428.039062 174.101562 332.21875 78.28125 214.019531 78.28125 Z M 214.019531 78.28125 " clip-rule="nonzero"/></clipPath><clipPath id="3285c25f6a"><path d="M 0 0.28125 L 428.039062 0.28125 L 428.039062 428.320312 L 0 428.320312 Z M 0 0.28125 " clip-rule="nonzero"/></clipPath><clipPath id="fde4146168"><path d="M 214.019531 0.28125 C 95.820312 0.28125 0 96.101562 0 214.300781 C 0 332.5 95.820312 428.320312 214.019531 428.320312 C 332.21875 428.320312 428.039062 332.5 428.039062 214.300781 C 428.039062 96.101562 332.21875 0.28125 214.019531 0.28125 Z M 214.019531 0.28125 " clip-rule="nonzero"/></clipPath><clipPath id="c196a70333"><rect x="0" width="429" y="0" height="429"/></clipPath><clipPath id="83c11cd02f"><path d="M 313 344 L 516 344 L 516 508 L 313 508 Z M 313 344 " clip-rule="nonzero"/></clipPath><clipPath id="9330f6516e"><path d="M 348.96875 324 L 535.460938 434.707031 L 480.109375 527.953125 L 293.617188 417.246094 Z M 348.96875 324 " clip-rule="nonzero"/></clipPath><clipPath id="458c11f596"><path d="M 488.835938 407.03125 C 514.585938 422.316406 523.070312 455.582031 507.785156 481.328125 C 492.5 507.078125 459.234375 515.5625 433.484375 500.277344 L 340.238281 444.925781 C 314.488281 429.640625 306.007812 396.375 321.292969 370.625 C 336.578125 344.875 369.84375 336.394531 395.589844 351.679688 Z M 488.835938 407.03125 " clip-rule="nonzero"/></clipPath><clipPath id="222df1ac23"><path d="M 0 0 L 203 0 L 203 164 L 0 164 Z M 0 0 " clip-rule="nonzero"/></clipPath><clipPath id="e298ea216f"><path d="M 35.96875 -20 L 222.460938 90.707031 L 167.109375 183.953125 L -19.382812 73.246094 Z M 35.96875 -20 " clip-rule="nonzero"/></clipPath><clipPath id="a4f72c6260"><path d="M 175.835938 63.03125 C 201.585938 78.316406 210.070312 111.582031 194.785156 137.328125 C 179.5 163.078125 146.234375 171.5625 120.484375 156.277344 L 27.238281 100.925781 C 1.488281 85.640625 -6.992188 52.375 8.292969 26.625 C 23.578125 0.875 56.84375 -7.605469 82.589844 7.679688 Z M 175.835938 63.03125 " clip-rule="nonzero"/></clipPath><clipPath id="423b199fc4"><rect x="0" width="203" y="0" height="164"/></clipPath><clipPath id="604d0a6a26"><rect x="0" width="536" y="0" height="539"/></clipPath></defs><g clip-path="url(#6ae23382ca)"><g transform="matrix(1, 0, 0, 1, 0, 88)"><g clip-path="url(#604d0a6a26)"><g clip-path="url(#325dcb6bcb)"><g clip-path="url(#e38f072b60)"><g transform="matrix(1, 0, 0, 1, 0, 78)"><g clip-path="url(#c196a70333)"><g clip-path="url(#3285c25f6a)"><g clip-path="url(#fde4146168)"><path fill="#1447e6" d="M 0 0.28125 L 428.039062 0.28125 L 428.039062 428.320312 L 0 428.320312 Z M 0 0.28125 " fill-opacity="1" fill-rule="nonzero"/></g></g></g></g></g></g><g clip-path="url(#83c11cd02f)"><g clip-path="url(#9330f6516e)"><g clip-path="url(#458c11f596)"><g transform="matrix(1, 0, 0, 1, 313, 344)"><g clip-path="url(#423b199fc4)"><g clip-path="url(#222df1ac23)"><g clip-path="url(#e298ea216f)"><g clip-path="url(#a4f72c6260)"><path fill="#1447e6" d="M 35.96875 -20 L 222.460938 90.707031 L 167.109375 183.953125 L -19.382812 73.246094 Z M 35.96875 -20 " fill-opacity="1" fill-rule="nonzero"/></g></g></g></g></g></g></g></g><g fill="#ffffff" fill-opacity="1"><g transform="translate(147.968363, 412.05676)"><g><path d="M 35.375 -37.84375 C 35.644531 -32.632812 35.984375 -27.148438 36.390625 -21.390625 C 36.804688 -15.628906 36.054688 -10.28125 34.140625 -5.34375 C 32.492188 -1.78125 29.546875 0 25.296875 0 C 21.046875 0 18.644531 -2.054688 18.09375 -6.171875 C 16.175781 -11.109375 15.351562 -16.316406 15.625 -21.796875 C 15.90625 -27.285156 16.046875 -32.632812 16.046875 -37.84375 C 16.046875 -43.332031 15.972656 -48.953125 15.828125 -54.703125 C 15.691406 -60.460938 15.625 -66.085938 15.625 -71.578125 L 14.390625 -134.921875 C 14.117188 -145.617188 13.984375 -156.3125 13.984375 -167 C 13.984375 -177.695312 13.847656 -188.253906 13.578125 -198.671875 C 13.296875 -209.921875 12.945312 -221.300781 12.53125 -232.8125 C 12.125 -244.332031 12.609375 -255.578125 13.984375 -266.546875 C 14.535156 -269.296875 15.972656 -271.351562 18.296875 -272.71875 C 20.628906 -274.09375 22.960938 -274.570312 25.296875 -274.15625 C 27.628906 -273.75 29.066406 -271.898438 29.609375 -268.609375 C 30.984375 -257.910156 31.671875 -247.078125 31.671875 -236.109375 C 31.671875 -225.140625 31.804688 -214.035156 32.078125 -202.796875 C 32.359375 -191.828125 32.632812 -180.925781 32.90625 -170.09375 C 33.175781 -159.257812 33.453125 -148.359375 33.734375 -137.390625 L 34.96875 -71.578125 C 34.96875 -66.085938 35.035156 -60.460938 35.171875 -54.703125 C 35.304688 -48.953125 35.375 -43.332031 35.375 -37.84375 Z M 35.375 -37.84375 "/></g></g></g><g fill="#ffffff" fill-opacity="1"><g transform="translate(203.078801, 455.307951)"><g><path d="M 93.78125 -267.375 C 96.800781 -266.820312 98.378906 -264.832031 98.515625 -261.40625 C 98.648438 -257.976562 97.070312 -255.851562 93.78125 -255.03125 C 89.125 -254.207031 84.53125 -253.726562 80 -253.59375 C 75.476562 -253.457031 70.613281 -253.523438 65.40625 -253.796875 L 48.125 -253.796875 C 42.644531 -253.796875 38.738281 -252.972656 36.40625 -251.328125 C 34.070312 -249.679688 32.695312 -247.96875 32.28125 -246.1875 C 31.875 -244.40625 31.671875 -243.101562 31.671875 -242.28125 C 31.117188 -216.226562 31.117188 -190.039062 31.671875 -163.71875 L 31.671875 -129.15625 C 34.960938 -129.15625 38.253906 -129.15625 41.546875 -129.15625 C 44.835938 -129.15625 48.128906 -129.019531 51.421875 -128.75 L 56.359375 -128.75 C 60.191406 -128.75 64.164062 -128.679688 68.28125 -128.546875 C 72.394531 -128.410156 76.375 -127.65625 80.21875 -126.28125 C 84.050781 -124.90625 85.898438 -122.226562 85.765625 -118.25 C 85.628906 -114.28125 83.640625 -111.472656 79.796875 -109.828125 C 76.234375 -108.734375 72.597656 -108.1875 68.890625 -108.1875 C 65.191406 -108.1875 61.425781 -108.320312 57.59375 -108.59375 C 56.21875 -108.863281 54.707031 -109 53.0625 -109 C 51.414062 -109 49.90625 -109 48.53125 -109 C 47.164062 -109.28125 45.726562 -109.421875 44.21875 -109.421875 C 42.707031 -109.421875 41.269531 -109.421875 39.90625 -109.421875 C 38.800781 -109.421875 37.5625 -109.488281 36.1875 -109.625 C 34.820312 -109.757812 33.453125 -109.828125 32.078125 -109.828125 C 32.078125 -105.171875 32.144531 -100.507812 32.28125 -95.84375 C 32.425781 -91.175781 32.5 -86.378906 32.5 -81.453125 L 32.5 -62.53125 C 32.5 -59.238281 32.5 -55.945312 32.5 -52.65625 C 32.5 -49.363281 32.359375 -46.207031 32.078125 -43.1875 L 32.078125 -34.546875 C 32.359375 -29.890625 32.425781 -25.09375 32.28125 -20.15625 C 32.144531 -15.21875 31.53125 -10.421875 30.4375 -5.765625 C 29.34375 -2.191406 26.738281 -0.40625 22.625 -0.40625 C 18.507812 -0.40625 16.039062 -2.328125 15.21875 -6.171875 C 14.125 -11.109375 13.503906 -16.316406 13.359375 -21.796875 C 13.222656 -27.285156 13.296875 -32.632812 13.578125 -37.84375 C 13.847656 -40.039062 13.984375 -42.097656 13.984375 -44.015625 C 13.984375 -45.929688 13.984375 -47.847656 13.984375 -49.765625 L 12.75 -94.609375 C 12.75 -96.523438 12.679688 -101.1875 12.546875 -108.59375 C 12.410156 -116 12.34375 -124.632812 12.34375 -134.5 C 12.34375 -144.375 12.34375 -153.972656 12.34375 -163.296875 C 12.34375 -172.628906 12.34375 -180.035156 12.34375 -185.515625 C 12.34375 -192.921875 12.410156 -200.320312 12.546875 -207.71875 C 12.679688 -215.125 12.882812 -222.53125 13.15625 -229.9375 L 13.15625 -236.9375 C 13.15625 -241.875 13.429688 -247.082031 13.984375 -252.5625 C 14.535156 -258.050781 16.179688 -262.300781 18.921875 -265.3125 C 22.210938 -268.882812 27.21875 -270.804688 33.9375 -271.078125 C 40.65625 -271.347656 46.207031 -271.347656 50.59375 -271.078125 C 57.726562 -271.347656 64.992188 -271.347656 72.390625 -271.078125 C 79.796875 -270.804688 86.925781 -269.570312 93.78125 -267.375 Z M 93.78125 -267.375 "/></g></g></g></g></g></g></svg>